<mxfile host="app.diagrams.net" modified="2023-06-29T12:52:36.618Z" agent="Mozilla/5.0 (Windows NT 10.0; Win64; x64) AppleWebKit/537.36 (KHTML, like Gecko) Chrome/114.0.0.0 Safari/537.36 Edg/114.0.1823.58" etag="lj77TKWswTrBOGzYBOrp" version="21.5.2" type="github" pages="5">
  <diagram name="Page-1" id="Oj55CL2kjpOyaCrujz7B">
    <mxGraphModel dx="995" dy="540" grid="1" gridSize="10" guides="1" tooltips="1" connect="1" arrows="1" fold="1" page="1" pageScale="1" pageWidth="850" pageHeight="1100" math="0" shadow="0">
      <root>
        <mxCell id="0" />
        <mxCell id="1" parent="0" />
        <mxCell id="MAHYz5BKaCeJXFYtloq3-2" value="Operating System" style="rounded=0;whiteSpace=wrap;html=1;fillColor=#d5e8d4;strokeColor=#82b366;" parent="1" vertex="1">
          <mxGeometry x="290" y="150" width="120" height="60" as="geometry" />
        </mxCell>
        <mxCell id="MAHYz5BKaCeJXFYtloq3-9" value="" style="endArrow=classic;startArrow=classic;html=1;rounded=0;" parent="1" source="MAHYz5BKaCeJXFYtloq3-2" target="MAHYz5BKaCeJXFYtloq3-22" edge="1">
          <mxGeometry width="50" height="50" relative="1" as="geometry">
            <mxPoint x="400" y="310" as="sourcePoint" />
            <mxPoint x="342" y="112" as="targetPoint" />
          </mxGeometry>
        </mxCell>
        <mxCell id="MAHYz5BKaCeJXFYtloq3-17" value="" style="rounded=1;whiteSpace=wrap;html=1;fillColor=#fff2cc;strokeColor=#d6b656;" parent="1" vertex="1">
          <mxGeometry x="141" y="243" width="430" height="80" as="geometry" />
        </mxCell>
        <mxCell id="MAHYz5BKaCeJXFYtloq3-16" value="" style="group" parent="1" vertex="1" connectable="0">
          <mxGeometry x="160" y="210" width="380" height="95" as="geometry" />
        </mxCell>
        <mxCell id="MAHYz5BKaCeJXFYtloq3-4" value="Memory" style="rounded=1;whiteSpace=wrap;html=1;fillColor=#e1d5e7;strokeColor=#9673a6;" parent="MAHYz5BKaCeJXFYtloq3-16" vertex="1">
          <mxGeometry y="52.5" width="60" height="40" as="geometry" />
        </mxCell>
        <mxCell id="MAHYz5BKaCeJXFYtloq3-5" value="CPU" style="rounded=1;whiteSpace=wrap;html=1;fillColor=#e1d5e7;strokeColor=#9673a6;" parent="MAHYz5BKaCeJXFYtloq3-16" vertex="1">
          <mxGeometry x="100" y="50" width="60" height="40" as="geometry" />
        </mxCell>
        <mxCell id="MAHYz5BKaCeJXFYtloq3-6" value="Disk" style="rounded=1;whiteSpace=wrap;html=1;fillColor=#e1d5e7;strokeColor=#9673a6;" parent="MAHYz5BKaCeJXFYtloq3-16" vertex="1">
          <mxGeometry x="205" y="50" width="60" height="45" as="geometry" />
        </mxCell>
        <mxCell id="MAHYz5BKaCeJXFYtloq3-8" value="Network" style="rounded=1;whiteSpace=wrap;html=1;fillColor=#e1d5e7;strokeColor=#9673a6;" parent="MAHYz5BKaCeJXFYtloq3-16" vertex="1">
          <mxGeometry x="320" y="50" width="60" height="45" as="geometry" />
        </mxCell>
        <mxCell id="MAHYz5BKaCeJXFYtloq3-10" value="" style="endArrow=classic;startArrow=classic;html=1;rounded=0;entryX=0.5;entryY=1;entryDx=0;entryDy=0;" parent="MAHYz5BKaCeJXFYtloq3-16" source="MAHYz5BKaCeJXFYtloq3-4" target="MAHYz5BKaCeJXFYtloq3-2" edge="1">
          <mxGeometry width="50" height="50" relative="1" as="geometry">
            <mxPoint x="240" y="100" as="sourcePoint" />
            <mxPoint x="290" y="50" as="targetPoint" />
          </mxGeometry>
        </mxCell>
        <mxCell id="MAHYz5BKaCeJXFYtloq3-11" value="" style="endArrow=classic;startArrow=classic;html=1;rounded=0;entryX=0.5;entryY=1;entryDx=0;entryDy=0;" parent="MAHYz5BKaCeJXFYtloq3-16" source="MAHYz5BKaCeJXFYtloq3-5" target="MAHYz5BKaCeJXFYtloq3-2" edge="1">
          <mxGeometry width="50" height="50" relative="1" as="geometry">
            <mxPoint x="240" y="100" as="sourcePoint" />
            <mxPoint x="290" y="50" as="targetPoint" />
          </mxGeometry>
        </mxCell>
        <mxCell id="MAHYz5BKaCeJXFYtloq3-12" value="" style="endArrow=classic;startArrow=classic;html=1;rounded=0;exitX=0.5;exitY=0;exitDx=0;exitDy=0;" parent="MAHYz5BKaCeJXFYtloq3-16" source="MAHYz5BKaCeJXFYtloq3-6" edge="1">
          <mxGeometry width="50" height="50" relative="1" as="geometry">
            <mxPoint x="240" y="100" as="sourcePoint" />
            <mxPoint x="180" as="targetPoint" />
          </mxGeometry>
        </mxCell>
        <mxCell id="MAHYz5BKaCeJXFYtloq3-13" value="" style="endArrow=classic;startArrow=classic;html=1;rounded=0;exitX=0.5;exitY=0;exitDx=0;exitDy=0;" parent="MAHYz5BKaCeJXFYtloq3-16" source="MAHYz5BKaCeJXFYtloq3-8" edge="1">
          <mxGeometry width="50" height="50" relative="1" as="geometry">
            <mxPoint x="240" y="100" as="sourcePoint" />
            <mxPoint x="180" as="targetPoint" />
          </mxGeometry>
        </mxCell>
        <mxCell id="MAHYz5BKaCeJXFYtloq3-22" value="" style="sketch=0;outlineConnect=0;fontColor=#232F3E;gradientColor=none;fillColor=#232F3D;strokeColor=none;dashed=0;verticalLabelPosition=bottom;verticalAlign=top;align=center;html=1;fontSize=12;fontStyle=0;aspect=fixed;pointerEvents=1;shape=mxgraph.aws4.user;" parent="1" vertex="1">
          <mxGeometry x="327" y="60" width="50" height="50" as="geometry" />
        </mxCell>
        <mxCell id="L1an0gsxVTcyTXtVG5RD-1" value="Label" style="html=1;shape=mxgraph.infographic.ribbonBackFolded;dx=25;dy=15;notch=15;fillColor=#10739E;strokeColor=none;align=center;verticalAlign=middle;fontColor=#ffffff;fontSize=14;fontStyle=1;spacingTop=10;" parent="1" vertex="1">
          <mxGeometry x="320" y="250" width="200" height="55.00000000000001" as="geometry" />
        </mxCell>
      </root>
    </mxGraphModel>
  </diagram>
  <diagram id="EJEg-kbwRR8YgzatiIFG" name="Page-2">
    <mxGraphModel dx="145" dy="540" grid="1" gridSize="10" guides="1" tooltips="1" connect="1" arrows="1" fold="1" page="1" pageScale="1" pageWidth="850" pageHeight="1100" math="0" shadow="0">
      <root>
        <mxCell id="0" />
        <mxCell id="1" parent="0" />
        <mxCell id="5NGHLmAHoj6-uHAQ2pUN-1" value="Operating System" style="rounded=0;whiteSpace=wrap;html=1;fillColor=#d5e8d4;strokeColor=#82b366;" vertex="1" parent="1">
          <mxGeometry x="1159" y="370" width="120" height="60" as="geometry" />
        </mxCell>
        <mxCell id="5NGHLmAHoj6-uHAQ2pUN-2" value="" style="endArrow=classic;startArrow=classic;html=1;rounded=0;" edge="1" parent="1" source="5NGHLmAHoj6-uHAQ2pUN-1">
          <mxGeometry width="50" height="50" relative="1" as="geometry">
            <mxPoint x="1269" y="530" as="sourcePoint" />
            <mxPoint x="1220.4736842105262" y="330" as="targetPoint" />
          </mxGeometry>
        </mxCell>
        <mxCell id="5NGHLmAHoj6-uHAQ2pUN-3" value="" style="rounded=1;whiteSpace=wrap;html=1;fillColor=#fff2cc;strokeColor=#d6b656;" vertex="1" parent="1">
          <mxGeometry x="1010" y="463" width="430" height="80" as="geometry" />
        </mxCell>
        <mxCell id="5NGHLmAHoj6-uHAQ2pUN-4" value="" style="group" vertex="1" connectable="0" parent="1">
          <mxGeometry x="1029" y="430" width="380" height="95" as="geometry" />
        </mxCell>
        <mxCell id="5NGHLmAHoj6-uHAQ2pUN-5" value="Memory" style="rounded=1;whiteSpace=wrap;html=1;fillColor=#e1d5e7;strokeColor=#9673a6;" vertex="1" parent="5NGHLmAHoj6-uHAQ2pUN-4">
          <mxGeometry y="52.5" width="60" height="40" as="geometry" />
        </mxCell>
        <mxCell id="5NGHLmAHoj6-uHAQ2pUN-6" value="CPU" style="rounded=1;whiteSpace=wrap;html=1;fillColor=#e1d5e7;strokeColor=#9673a6;" vertex="1" parent="5NGHLmAHoj6-uHAQ2pUN-4">
          <mxGeometry x="100" y="50" width="60" height="40" as="geometry" />
        </mxCell>
        <mxCell id="5NGHLmAHoj6-uHAQ2pUN-7" value="Disk" style="rounded=1;whiteSpace=wrap;html=1;fillColor=#e1d5e7;strokeColor=#9673a6;" vertex="1" parent="5NGHLmAHoj6-uHAQ2pUN-4">
          <mxGeometry x="205" y="50" width="60" height="45" as="geometry" />
        </mxCell>
        <mxCell id="5NGHLmAHoj6-uHAQ2pUN-8" value="Network" style="rounded=1;whiteSpace=wrap;html=1;fillColor=#e1d5e7;strokeColor=#9673a6;" vertex="1" parent="5NGHLmAHoj6-uHAQ2pUN-4">
          <mxGeometry x="320" y="50" width="60" height="45" as="geometry" />
        </mxCell>
        <mxCell id="5NGHLmAHoj6-uHAQ2pUN-9" value="" style="endArrow=classic;startArrow=classic;html=1;rounded=0;exitX=0.5;exitY=0;exitDx=0;exitDy=0;" edge="1" parent="5NGHLmAHoj6-uHAQ2pUN-4" source="5NGHLmAHoj6-uHAQ2pUN-7">
          <mxGeometry width="50" height="50" relative="1" as="geometry">
            <mxPoint x="240" y="100" as="sourcePoint" />
            <mxPoint x="180" as="targetPoint" />
          </mxGeometry>
        </mxCell>
        <mxCell id="5NGHLmAHoj6-uHAQ2pUN-10" value="" style="endArrow=classic;startArrow=classic;html=1;rounded=0;exitX=0.5;exitY=0;exitDx=0;exitDy=0;" edge="1" parent="5NGHLmAHoj6-uHAQ2pUN-4" source="5NGHLmAHoj6-uHAQ2pUN-8">
          <mxGeometry width="50" height="50" relative="1" as="geometry">
            <mxPoint x="240" y="100" as="sourcePoint" />
            <mxPoint x="180" as="targetPoint" />
          </mxGeometry>
        </mxCell>
        <mxCell id="5NGHLmAHoj6-uHAQ2pUN-11" value="" style="endArrow=classic;startArrow=classic;html=1;rounded=0;entryX=0.5;entryY=1;entryDx=0;entryDy=0;" edge="1" parent="1" source="5NGHLmAHoj6-uHAQ2pUN-5" target="5NGHLmAHoj6-uHAQ2pUN-1">
          <mxGeometry width="50" height="50" relative="1" as="geometry">
            <mxPoint x="1269" y="530" as="sourcePoint" />
            <mxPoint x="1319" y="480" as="targetPoint" />
          </mxGeometry>
        </mxCell>
        <mxCell id="5NGHLmAHoj6-uHAQ2pUN-12" value="" style="endArrow=classic;startArrow=classic;html=1;rounded=0;entryX=0.5;entryY=1;entryDx=0;entryDy=0;" edge="1" parent="1" source="5NGHLmAHoj6-uHAQ2pUN-6" target="5NGHLmAHoj6-uHAQ2pUN-1">
          <mxGeometry width="50" height="50" relative="1" as="geometry">
            <mxPoint x="1269" y="530" as="sourcePoint" />
            <mxPoint x="1319" y="480" as="targetPoint" />
          </mxGeometry>
        </mxCell>
        <mxCell id="5NGHLmAHoj6-uHAQ2pUN-14" value="" style="sketch=0;outlineConnect=0;fontColor=#232F3E;gradientColor=none;fillColor=#232F3D;strokeColor=none;dashed=0;verticalLabelPosition=bottom;verticalAlign=top;align=center;html=1;fontSize=12;fontStyle=0;aspect=fixed;pointerEvents=1;shape=mxgraph.aws4.users;" vertex="1" parent="1">
          <mxGeometry x="1180" y="250" width="78" height="78" as="geometry" />
        </mxCell>
      </root>
    </mxGraphModel>
  </diagram>
  <diagram id="0v9s4utl-c6NkSoodGCg" name="Page-3">
    <mxGraphModel dx="995" dy="540" grid="1" gridSize="10" guides="1" tooltips="1" connect="1" arrows="1" fold="1" page="1" pageScale="1" pageWidth="850" pageHeight="1100" math="0" shadow="0">
      <root>
        <mxCell id="0" />
        <mxCell id="1" parent="0" />
        <mxCell id="1tu1NLy-smNzChsXJuMb-1" value="Operating System" style="rounded=0;whiteSpace=wrap;html=1;fillColor=#d5e8d4;strokeColor=#82b366;" vertex="1" parent="1">
          <mxGeometry x="419" y="260" width="120" height="60" as="geometry" />
        </mxCell>
        <mxCell id="1tu1NLy-smNzChsXJuMb-2" value="" style="endArrow=classic;startArrow=classic;html=1;rounded=0;" edge="1" parent="1" source="1tu1NLy-smNzChsXJuMb-1">
          <mxGeometry width="50" height="50" relative="1" as="geometry">
            <mxPoint x="529" y="420" as="sourcePoint" />
            <mxPoint x="480.47368421052624" y="220" as="targetPoint" />
          </mxGeometry>
        </mxCell>
        <mxCell id="1tu1NLy-smNzChsXJuMb-3" value="" style="rounded=1;whiteSpace=wrap;html=1;fillColor=#fff2cc;strokeColor=#d6b656;" vertex="1" parent="1">
          <mxGeometry x="270" y="353" width="430" height="80" as="geometry" />
        </mxCell>
        <mxCell id="1tu1NLy-smNzChsXJuMb-4" value="" style="group" vertex="1" connectable="0" parent="1">
          <mxGeometry x="289" y="320" width="380" height="95" as="geometry" />
        </mxCell>
        <mxCell id="1tu1NLy-smNzChsXJuMb-5" value="Memory" style="rounded=1;whiteSpace=wrap;html=1;fillColor=#e1d5e7;strokeColor=#9673a6;" vertex="1" parent="1tu1NLy-smNzChsXJuMb-4">
          <mxGeometry y="52.5" width="60" height="40" as="geometry" />
        </mxCell>
        <mxCell id="1tu1NLy-smNzChsXJuMb-6" value="CPU" style="rounded=1;whiteSpace=wrap;html=1;fillColor=#e1d5e7;strokeColor=#9673a6;" vertex="1" parent="1tu1NLy-smNzChsXJuMb-4">
          <mxGeometry x="100" y="50" width="60" height="40" as="geometry" />
        </mxCell>
        <mxCell id="1tu1NLy-smNzChsXJuMb-7" value="Disk" style="rounded=1;whiteSpace=wrap;html=1;fillColor=#e1d5e7;strokeColor=#9673a6;" vertex="1" parent="1tu1NLy-smNzChsXJuMb-4">
          <mxGeometry x="205" y="50" width="60" height="45" as="geometry" />
        </mxCell>
        <mxCell id="1tu1NLy-smNzChsXJuMb-8" value="Network" style="rounded=1;whiteSpace=wrap;html=1;fillColor=#e1d5e7;strokeColor=#9673a6;" vertex="1" parent="1tu1NLy-smNzChsXJuMb-4">
          <mxGeometry x="320" y="50" width="60" height="45" as="geometry" />
        </mxCell>
        <mxCell id="1tu1NLy-smNzChsXJuMb-9" value="" style="endArrow=classic;startArrow=classic;html=1;rounded=0;exitX=0.5;exitY=0;exitDx=0;exitDy=0;" edge="1" parent="1tu1NLy-smNzChsXJuMb-4" source="1tu1NLy-smNzChsXJuMb-7">
          <mxGeometry width="50" height="50" relative="1" as="geometry">
            <mxPoint x="240" y="100" as="sourcePoint" />
            <mxPoint x="180" as="targetPoint" />
          </mxGeometry>
        </mxCell>
        <mxCell id="1tu1NLy-smNzChsXJuMb-10" value="" style="endArrow=classic;startArrow=classic;html=1;rounded=0;exitX=0.5;exitY=0;exitDx=0;exitDy=0;" edge="1" parent="1tu1NLy-smNzChsXJuMb-4" source="1tu1NLy-smNzChsXJuMb-8">
          <mxGeometry width="50" height="50" relative="1" as="geometry">
            <mxPoint x="240" y="100" as="sourcePoint" />
            <mxPoint x="180" as="targetPoint" />
          </mxGeometry>
        </mxCell>
        <mxCell id="1tu1NLy-smNzChsXJuMb-11" value="" style="endArrow=classic;startArrow=classic;html=1;rounded=0;entryX=0.5;entryY=1;entryDx=0;entryDy=0;" edge="1" parent="1" source="1tu1NLy-smNzChsXJuMb-5" target="1tu1NLy-smNzChsXJuMb-1">
          <mxGeometry width="50" height="50" relative="1" as="geometry">
            <mxPoint x="529" y="420" as="sourcePoint" />
            <mxPoint x="579" y="370" as="targetPoint" />
          </mxGeometry>
        </mxCell>
        <mxCell id="1tu1NLy-smNzChsXJuMb-12" value="" style="endArrow=classic;startArrow=classic;html=1;rounded=0;entryX=0.5;entryY=1;entryDx=0;entryDy=0;" edge="1" parent="1" source="1tu1NLy-smNzChsXJuMb-6" target="1tu1NLy-smNzChsXJuMb-1">
          <mxGeometry width="50" height="50" relative="1" as="geometry">
            <mxPoint x="529" y="420" as="sourcePoint" />
            <mxPoint x="579" y="370" as="targetPoint" />
          </mxGeometry>
        </mxCell>
        <mxCell id="1tu1NLy-smNzChsXJuMb-14" value="" style="sketch=0;outlineConnect=0;fontColor=#232F3E;gradientColor=none;fillColor=#232F3D;strokeColor=none;dashed=0;verticalLabelPosition=bottom;verticalAlign=top;align=center;html=1;fontSize=12;fontStyle=0;aspect=fixed;pointerEvents=1;shape=mxgraph.aws4.user;" vertex="1" parent="1">
          <mxGeometry x="449" y="58" width="60" height="60" as="geometry" />
        </mxCell>
        <mxCell id="1tu1NLy-smNzChsXJuMb-15" value="Phone Book" style="rounded=0;whiteSpace=wrap;html=1;fillColor=#dae8fc;strokeColor=#6c8ebf;" vertex="1" parent="1">
          <mxGeometry x="419" y="155" width="120" height="60" as="geometry" />
        </mxCell>
        <mxCell id="1tu1NLy-smNzChsXJuMb-16" value="" style="endArrow=classic;startArrow=classic;html=1;rounded=0;" edge="1" parent="1">
          <mxGeometry width="50" height="50" relative="1" as="geometry">
            <mxPoint x="480" y="157" as="sourcePoint" />
            <mxPoint x="480.47368421052624" y="117" as="targetPoint" />
          </mxGeometry>
        </mxCell>
      </root>
    </mxGraphModel>
  </diagram>
  <diagram id="igK2FAQBOSiUEDxPcH-l" name="Page-4">
    <mxGraphModel dx="995" dy="540" grid="1" gridSize="10" guides="1" tooltips="1" connect="1" arrows="1" fold="1" page="1" pageScale="1" pageWidth="850" pageHeight="1100" math="0" shadow="0">
      <root>
        <mxCell id="0" />
        <mxCell id="1" parent="0" />
        <mxCell id="__iCE1ikGUMcm71j15iQ-1" value="Operating System" style="rounded=0;whiteSpace=wrap;html=1;fillColor=#d5e8d4;strokeColor=#82b366;" vertex="1" parent="1">
          <mxGeometry x="419" y="260" width="120" height="60" as="geometry" />
        </mxCell>
        <mxCell id="__iCE1ikGUMcm71j15iQ-2" value="" style="endArrow=classic;startArrow=classic;html=1;rounded=0;" edge="1" parent="1" source="__iCE1ikGUMcm71j15iQ-1">
          <mxGeometry width="50" height="50" relative="1" as="geometry">
            <mxPoint x="529" y="420" as="sourcePoint" />
            <mxPoint x="480.47368421052624" y="220" as="targetPoint" />
          </mxGeometry>
        </mxCell>
        <mxCell id="__iCE1ikGUMcm71j15iQ-3" value="" style="rounded=1;whiteSpace=wrap;html=1;fillColor=#fff2cc;strokeColor=#d6b656;" vertex="1" parent="1">
          <mxGeometry x="270" y="353" width="430" height="80" as="geometry" />
        </mxCell>
        <mxCell id="__iCE1ikGUMcm71j15iQ-4" value="" style="group" vertex="1" connectable="0" parent="1">
          <mxGeometry x="289" y="320" width="380" height="95" as="geometry" />
        </mxCell>
        <mxCell id="__iCE1ikGUMcm71j15iQ-5" value="Memory" style="rounded=1;whiteSpace=wrap;html=1;fillColor=#e1d5e7;strokeColor=#9673a6;" vertex="1" parent="__iCE1ikGUMcm71j15iQ-4">
          <mxGeometry y="52.5" width="60" height="40" as="geometry" />
        </mxCell>
        <mxCell id="__iCE1ikGUMcm71j15iQ-6" value="CPU" style="rounded=1;whiteSpace=wrap;html=1;fillColor=#e1d5e7;strokeColor=#9673a6;" vertex="1" parent="__iCE1ikGUMcm71j15iQ-4">
          <mxGeometry x="100" y="50" width="60" height="40" as="geometry" />
        </mxCell>
        <mxCell id="__iCE1ikGUMcm71j15iQ-7" value="Disk" style="rounded=1;whiteSpace=wrap;html=1;fillColor=#e1d5e7;strokeColor=#9673a6;" vertex="1" parent="__iCE1ikGUMcm71j15iQ-4">
          <mxGeometry x="205" y="50" width="60" height="45" as="geometry" />
        </mxCell>
        <mxCell id="__iCE1ikGUMcm71j15iQ-8" value="Network" style="rounded=1;whiteSpace=wrap;html=1;fillColor=#e1d5e7;strokeColor=#9673a6;" vertex="1" parent="__iCE1ikGUMcm71j15iQ-4">
          <mxGeometry x="320" y="50" width="60" height="45" as="geometry" />
        </mxCell>
        <mxCell id="__iCE1ikGUMcm71j15iQ-9" value="" style="endArrow=classic;startArrow=classic;html=1;rounded=0;exitX=0.5;exitY=0;exitDx=0;exitDy=0;" edge="1" parent="__iCE1ikGUMcm71j15iQ-4" source="__iCE1ikGUMcm71j15iQ-7">
          <mxGeometry width="50" height="50" relative="1" as="geometry">
            <mxPoint x="240" y="100" as="sourcePoint" />
            <mxPoint x="180" as="targetPoint" />
          </mxGeometry>
        </mxCell>
        <mxCell id="__iCE1ikGUMcm71j15iQ-10" value="" style="endArrow=classic;startArrow=classic;html=1;rounded=0;exitX=0.5;exitY=0;exitDx=0;exitDy=0;" edge="1" parent="__iCE1ikGUMcm71j15iQ-4" source="__iCE1ikGUMcm71j15iQ-8">
          <mxGeometry width="50" height="50" relative="1" as="geometry">
            <mxPoint x="240" y="100" as="sourcePoint" />
            <mxPoint x="180" as="targetPoint" />
          </mxGeometry>
        </mxCell>
        <mxCell id="__iCE1ikGUMcm71j15iQ-11" value="" style="endArrow=classic;startArrow=classic;html=1;rounded=0;entryX=0.5;entryY=1;entryDx=0;entryDy=0;" edge="1" parent="1" source="__iCE1ikGUMcm71j15iQ-5" target="__iCE1ikGUMcm71j15iQ-1">
          <mxGeometry width="50" height="50" relative="1" as="geometry">
            <mxPoint x="529" y="420" as="sourcePoint" />
            <mxPoint x="579" y="370" as="targetPoint" />
          </mxGeometry>
        </mxCell>
        <mxCell id="__iCE1ikGUMcm71j15iQ-12" value="" style="endArrow=classic;startArrow=classic;html=1;rounded=0;entryX=0.5;entryY=1;entryDx=0;entryDy=0;" edge="1" parent="1" source="__iCE1ikGUMcm71j15iQ-6" target="__iCE1ikGUMcm71j15iQ-1">
          <mxGeometry width="50" height="50" relative="1" as="geometry">
            <mxPoint x="529" y="420" as="sourcePoint" />
            <mxPoint x="579" y="370" as="targetPoint" />
          </mxGeometry>
        </mxCell>
        <mxCell id="__iCE1ikGUMcm71j15iQ-13" value="" style="sketch=0;outlineConnect=0;fontColor=#232F3E;gradientColor=none;fillColor=#232F3D;strokeColor=none;dashed=0;verticalLabelPosition=bottom;verticalAlign=top;align=center;html=1;fontSize=12;fontStyle=0;aspect=fixed;pointerEvents=1;shape=mxgraph.aws4.user;" vertex="1" parent="1">
          <mxGeometry x="449" y="58" width="60" height="60" as="geometry" />
        </mxCell>
        <mxCell id="__iCE1ikGUMcm71j15iQ-14" value="Phone Book&lt;br&gt;WhatsApp&lt;br&gt;Youtube" style="rounded=0;whiteSpace=wrap;html=1;fillColor=#dae8fc;strokeColor=#6c8ebf;" vertex="1" parent="1">
          <mxGeometry x="419" y="155" width="120" height="60" as="geometry" />
        </mxCell>
        <mxCell id="__iCE1ikGUMcm71j15iQ-15" value="" style="endArrow=classic;startArrow=classic;html=1;rounded=0;" edge="1" parent="1">
          <mxGeometry width="50" height="50" relative="1" as="geometry">
            <mxPoint x="480" y="157" as="sourcePoint" />
            <mxPoint x="480.47368421052624" y="117" as="targetPoint" />
          </mxGeometry>
        </mxCell>
      </root>
    </mxGraphModel>
  </diagram>
  <diagram id="gh_o_lpHXWe0CsL5JwtT" name="Page-5">
    <mxGraphModel dx="2271" dy="771" grid="1" gridSize="10" guides="1" tooltips="1" connect="1" arrows="1" fold="1" page="1" pageScale="1" pageWidth="850" pageHeight="1100" math="0" shadow="0">
      <root>
        <mxCell id="0" />
        <mxCell id="1" parent="0" />
        <mxCell id="WtAJ188L4nBXC0D4zyrd-1" value="DEV" style="html=1;shape=mxgraph.infographic.ribbonSimple;notch1=20;notch2=20;fillColor=#10739E;strokeColor=none;align=center;verticalAlign=middle;fontColor=#ffffff;fontSize=14;fontStyle=1;" parent="1" vertex="1">
          <mxGeometry x="325" y="50" width="200" height="40" as="geometry" />
        </mxCell>
        <mxCell id="WtAJ188L4nBXC0D4zyrd-2" value="Review" style="html=1;shape=mxgraph.infographic.ribbonSimple;notch1=20;notch2=20;fillColor=#10739E;strokeColor=none;align=center;verticalAlign=middle;fontColor=#ffffff;fontSize=14;fontStyle=1;" parent="1" vertex="1">
          <mxGeometry x="120" y="50" width="200" height="40" as="geometry" />
        </mxCell>
        <mxCell id="WtAJ188L4nBXC0D4zyrd-3" value="Development" style="html=1;shape=mxgraph.infographic.ribbonSimple;notch1=20;notch2=20;fillColor=#10739E;strokeColor=none;align=center;verticalAlign=middle;fontColor=#ffffff;fontSize=14;fontStyle=1;" parent="1" vertex="1">
          <mxGeometry x="-80" y="50" width="200" height="40" as="geometry" />
        </mxCell>
        <mxCell id="WtAJ188L4nBXC0D4zyrd-4" value="UAT" style="html=1;shape=mxgraph.infographic.ribbonSimple;notch1=20;notch2=20;fillColor=#10739E;strokeColor=none;align=center;verticalAlign=middle;fontColor=#ffffff;fontSize=14;fontStyle=1;" parent="1" vertex="1">
          <mxGeometry x="520" y="50" width="200" height="40" as="geometry" />
        </mxCell>
        <mxCell id="WtAJ188L4nBXC0D4zyrd-5" value="PROD" style="html=1;shape=mxgraph.infographic.ribbonSimple;notch1=20;notch2=20;fillColor=#10739E;strokeColor=none;align=center;verticalAlign=middle;fontColor=#ffffff;fontSize=14;fontStyle=1;" parent="1" vertex="1">
          <mxGeometry x="710" y="50" width="200" height="40" as="geometry" />
        </mxCell>
        <mxCell id="WtAJ188L4nBXC0D4zyrd-6" value="" style="image;sketch=0;aspect=fixed;html=1;points=[];align=center;fontSize=12;image=img/lib/mscae/Azure_Repos.svg;" parent="1" vertex="1">
          <mxGeometry x="-45" y="110" width="45" height="50" as="geometry" />
        </mxCell>
        <mxCell id="WtAJ188L4nBXC0D4zyrd-7" value="Azure Version controller&lt;br&gt;" style="text;html=1;strokeColor=none;fillColor=none;align=center;verticalAlign=middle;whiteSpace=wrap;rounded=0;" parent="1" vertex="1">
          <mxGeometry x="10" y="120" width="100" height="30" as="geometry" />
        </mxCell>
        <mxCell id="WtAJ188L4nBXC0D4zyrd-8" value="Master Branch" style="text;html=1;strokeColor=#6c8ebf;fillColor=#dae8fc;align=center;verticalAlign=middle;whiteSpace=wrap;rounded=0;" parent="1" vertex="1">
          <mxGeometry x="-45" y="170" width="95" height="30" as="geometry" />
        </mxCell>
        <mxCell id="WtAJ188L4nBXC0D4zyrd-9" value="Create a feature branch" style="text;html=1;strokeColor=none;fillColor=none;align=center;verticalAlign=middle;whiteSpace=wrap;rounded=0;" parent="1" vertex="1">
          <mxGeometry x="-50" y="230" width="100" height="30" as="geometry" />
        </mxCell>
        <mxCell id="WtAJ188L4nBXC0D4zyrd-15" value="" style="group" parent="1" vertex="1" connectable="0">
          <mxGeometry x="-60" y="280" width="120" height="90" as="geometry" />
        </mxCell>
        <mxCell id="WtAJ188L4nBXC0D4zyrd-11" value="" style="shape=image;html=1;verticalAlign=top;verticalLabelPosition=bottom;labelBackgroundColor=#ffffff;imageAspect=0;aspect=fixed;image=https://cdn1.iconfinder.com/data/icons/ionicons-fill-vol-2/512/person-128.png" parent="WtAJ188L4nBXC0D4zyrd-15" vertex="1">
          <mxGeometry width="59.53488372093023" height="59.53488372093023" as="geometry" />
        </mxCell>
        <mxCell id="WtAJ188L4nBXC0D4zyrd-13" value="" style="shape=image;html=1;verticalAlign=top;verticalLabelPosition=bottom;labelBackgroundColor=#ffffff;imageAspect=0;aspect=fixed;image=https://cdn0.iconfinder.com/data/icons/devices-42/512/Laptop-128.png" parent="WtAJ188L4nBXC0D4zyrd-15" vertex="1">
          <mxGeometry x="60.46511627906977" width="59.53488372093023" height="59.53488372093023" as="geometry" />
        </mxCell>
        <mxCell id="WtAJ188L4nBXC0D4zyrd-14" value="Feature XYZ" style="text;html=1;strokeColor=#82b366;fillColor=#d5e8d4;align=center;verticalAlign=middle;whiteSpace=wrap;rounded=0;" parent="WtAJ188L4nBXC0D4zyrd-15" vertex="1">
          <mxGeometry x="15.348837209302326" y="72.9113924050633" width="100.93023255813952" height="17.08860759493671" as="geometry" />
        </mxCell>
        <mxCell id="WtAJ188L4nBXC0D4zyrd-19" value="Develop" style="sketch=0;points=[[0,0,0],[0.25,0,0],[0.5,0,0],[0.75,0,0],[1,0,0],[0,1,0],[0.25,1,0],[0.5,1,0],[0.75,1,0],[1,1,0],[0,0.25,0],[0,0.5,0],[0,0.75,0],[1,0.25,0],[1,0.5,0],[1,0.75,0]];outlineConnect=0;fontColor=#232F3E;gradientColor=#4D72F3;gradientDirection=north;fillColor=#3334B9;strokeColor=#ffffff;dashed=0;verticalLabelPosition=bottom;verticalAlign=top;align=center;html=1;fontSize=12;fontStyle=0;aspect=fixed;shape=mxgraph.aws4.resourceIcon;resIcon=mxgraph.aws4.command_line_interface;" parent="1" vertex="1">
          <mxGeometry x="-39" y="400" width="78" height="78" as="geometry" />
        </mxCell>
        <mxCell id="WtAJ188L4nBXC0D4zyrd-20" value="Create a pull reqeust" style="shape=image;html=1;verticalAlign=top;verticalLabelPosition=bottom;labelBackgroundColor=#ffffff;imageAspect=0;aspect=fixed;image=https://cdn0.iconfinder.com/data/icons/octicons/1024/git-pull-request-128.png" parent="1" vertex="1">
          <mxGeometry x="-25" y="550" width="50" height="50" as="geometry" />
        </mxCell>
        <mxCell id="WtAJ188L4nBXC0D4zyrd-21" value="" style="image;sketch=0;aspect=fixed;html=1;points=[];align=center;fontSize=12;image=img/lib/mscae/Azure_Repos.svg;" parent="1" vertex="1">
          <mxGeometry x="142.5" y="110" width="45" height="50" as="geometry" />
        </mxCell>
        <mxCell id="WtAJ188L4nBXC0D4zyrd-22" value="Azure Version controller&lt;br&gt;" style="text;html=1;strokeColor=none;fillColor=none;align=center;verticalAlign=middle;whiteSpace=wrap;rounded=0;" parent="1" vertex="1">
          <mxGeometry x="197.5" y="120" width="100" height="30" as="geometry" />
        </mxCell>
        <mxCell id="WtAJ188L4nBXC0D4zyrd-23" value="" style="shape=image;html=1;verticalAlign=top;verticalLabelPosition=bottom;labelBackgroundColor=#ffffff;imageAspect=0;aspect=fixed;image=https://cdn1.iconfinder.com/data/icons/user-pictures/100/male3-128.png" parent="1" vertex="1">
          <mxGeometry x="137.5" y="170" width="50" height="50" as="geometry" />
        </mxCell>
        <mxCell id="WtAJ188L4nBXC0D4zyrd-24" value="" style="shape=image;html=1;verticalAlign=top;verticalLabelPosition=bottom;labelBackgroundColor=#ffffff;imageAspect=0;aspect=fixed;image=https://cdn1.iconfinder.com/data/icons/user-pictures/100/male3-128.png" parent="1" vertex="1">
          <mxGeometry x="236.5" y="170" width="50" height="50" as="geometry" />
        </mxCell>
        <mxCell id="WtAJ188L4nBXC0D4zyrd-26" value="" style="shape=mxgraph.cisco.misc.content_transformation_engine_(cte);html=1;pointerEvents=1;dashed=0;fillColor=#036897;strokeColor=#ffffff;strokeWidth=2;verticalLabelPosition=bottom;verticalAlign=top;align=center;outlineConnect=0;" parent="1" vertex="1">
          <mxGeometry x="187.5" y="175" width="50" height="40" as="geometry" />
        </mxCell>
        <mxCell id="WtAJ188L4nBXC0D4zyrd-27" value="Code review" style="text;html=1;strokeColor=#6c8ebf;fillColor=#dae8fc;align=center;verticalAlign=middle;whiteSpace=wrap;rounded=0;" parent="1" vertex="1">
          <mxGeometry x="165" y="230" width="95" height="30" as="geometry" />
        </mxCell>
        <mxCell id="WtAJ188L4nBXC0D4zyrd-39" value="" style="group" parent="1" vertex="1" connectable="0">
          <mxGeometry x="100" y="280" width="273" height="110" as="geometry" />
        </mxCell>
        <mxCell id="WtAJ188L4nBXC0D4zyrd-29" value="" style="rounded=1;whiteSpace=wrap;html=1;" parent="WtAJ188L4nBXC0D4zyrd-39" vertex="1">
          <mxGeometry width="273" height="110" as="geometry" />
        </mxCell>
        <mxCell id="WtAJ188L4nBXC0D4zyrd-34" value="Bug fix" style="sketch=0;html=1;verticalAlign=top;labelPosition=center;verticalLabelPosition=bottom;align=center;spacingTop=-6;fontSize=11;fontStyle=1;fontColor=#999999;shape=image;aspect=fixed;imageAspect=0;image=data:image/svg+xml,PHN2ZyB4bWxucz0iaHR0cDovL3d3dy53My5vcmcvMjAwMC9zdmciIHhtbG5zOnY9Imh0dHBzOi8vdmVjdGEuaW8vbmFubyIgd2lkdGg9IjIwIiBoZWlnaHQ9IjE3LjI3OTk5ODc3OTI5Njg3NSIgdmlld0JveD0iMCAwIDIwIDE3LjI3OTk5ODc3OTI5Njg3NSI+JiN4YTsJPHN0eWxlIHR5cGU9InRleHQvY3NzIj4mI3hhOwkuc3Qwe2ZpbGw6IzQyODVmNDt9JiN4YTsJLnN0MXtmaWxsOiM2NjlkZjY7fSYjeGE7CTwvc3R5bGU+JiN4YTsJPGNpcmNsZSBjbGFzcz0ic3QwIiBjeD0iOS40NCIgY3k9IjguMTQiIHI9IjIuOTciLz4mI3hhOwk8ZyBjbGFzcz0ic3QxIj4mI3hhOwkJPGNpcmNsZSBjeD0iMi4wMiIgY3k9IjcuNDMiIHI9IjIuMDIiLz4mI3hhOwkJPGNpcmNsZSBjeD0iMTIuNTIiIGN5PSIxNS4yNiIgcj0iMi4wMiIvPiYjeGE7CQk8cGF0aCBkPSJNMTcuNTcuODRBMi40MyAyLjQzIDAgMSAwIDIwIDMuMjcgMi40MyAyLjQzIDAgMCAwIDE3LjU3Ljg0em0wIDMuOGExLjM3IDEuMzcgMCAxIDEgMS4zNi0xLjM3aDBhMS4zNyAxLjM3IDAgMCAxLTEuMzYgMS4zN3oiLz4mI3hhOwkJPHBhdGggZD0iTTE2LjIgMy4zMkE4LjI5IDguMjkgMCAwIDAgMTEuMTQgMGwtLjI4IDEuMzRhNi45NSA2Ljk1IDAgMSAxLTguMjIgNS4zOCA2Ljg4IDYuODggMCAwIDEgMS44Ny0zLjQ3bC0xLTFhOC4zMSA4LjMxIDAgMSAwIDEzLjM4IDIuMiAxLjM2IDEuMzYgMCAwIDEtLjY5LTEuMTN6Ii8+JiN4YTsJPC9nPiYjeGE7PC9zdmc+;" parent="WtAJ188L4nBXC0D4zyrd-39" vertex="1">
          <mxGeometry x="13" y="32" width="56" height="48" as="geometry" />
        </mxCell>
        <mxCell id="WtAJ188L4nBXC0D4zyrd-36" value="Success Build" style="image;aspect=fixed;html=1;points=[];align=center;fontSize=12;image=img/lib/azure2/general/Builds.svg;" parent="WtAJ188L4nBXC0D4zyrd-39" vertex="1">
          <mxGeometry x="203" y="30" width="47" height="47" as="geometry" />
        </mxCell>
        <mxCell id="WtAJ188L4nBXC0D4zyrd-38" value="Security Scanning" style="sketch=0;outlineConnect=0;fontColor=#232F3E;gradientColor=none;fillColor=#232F3D;strokeColor=none;dashed=0;verticalLabelPosition=bottom;verticalAlign=top;align=center;html=1;fontSize=12;fontStyle=0;aspect=fixed;pointerEvents=1;shape=mxgraph.aws4.shield2;" parent="WtAJ188L4nBXC0D4zyrd-39" vertex="1">
          <mxGeometry x="107.5" y="19" width="58" height="58" as="geometry" />
        </mxCell>
        <mxCell id="WtAJ188L4nBXC0D4zyrd-43" value="Master Branch" style="image;sketch=0;aspect=fixed;html=1;points=[];align=center;fontSize=12;image=img/lib/mscae/Azure_Repos.svg;" parent="1" vertex="1">
          <mxGeometry x="187.5" y="423" width="28.8" height="32" as="geometry" />
        </mxCell>
        <mxCell id="Sf03F74_9f9WxnwygZxC-11" value="" style="group" parent="1" vertex="1" connectable="0">
          <mxGeometry x="344" y="130" width="162" height="167" as="geometry" />
        </mxCell>
        <mxCell id="Sf03F74_9f9WxnwygZxC-8" value="" style="group" parent="Sf03F74_9f9WxnwygZxC-11" vertex="1" connectable="0">
          <mxGeometry width="162" height="167" as="geometry" />
        </mxCell>
        <mxCell id="Sf03F74_9f9WxnwygZxC-6" value="" style="rounded=1;arcSize=10;dashed=0;fillColor=none;gradientColor=none;strokeWidth=2;" parent="Sf03F74_9f9WxnwygZxC-8" vertex="1">
          <mxGeometry y="15.18181818181818" width="145.8" height="91.09090909090908" as="geometry" />
        </mxCell>
        <mxCell id="Sf03F74_9f9WxnwygZxC-7" value="" style="dashed=0;html=1;shape=mxgraph.aws3.virtual_private_cloud;fillColor=#F58536;gradientColor=none;dashed=0;" parent="Sf03F74_9f9WxnwygZxC-8" vertex="1">
          <mxGeometry x="16.200000000000003" width="42.120000000000005" height="27.327272727272724" as="geometry" />
        </mxCell>
        <mxCell id="Sf03F74_9f9WxnwygZxC-10" value="" style="group" parent="Sf03F74_9f9WxnwygZxC-11" vertex="1" connectable="0">
          <mxGeometry x="16.200000000000003" y="37.95454545454545" width="105.30000000000001" height="37.95454545454545" as="geometry" />
        </mxCell>
        <mxCell id="Sf03F74_9f9WxnwygZxC-1" value="ECS Container" style="outlineConnect=0;dashed=0;verticalLabelPosition=bottom;verticalAlign=top;align=center;html=1;shape=mxgraph.aws3.ec2_compute_container;fillColor=#F58534;gradientColor=none;" parent="Sf03F74_9f9WxnwygZxC-10" vertex="1">
          <mxGeometry x="56.7" width="48.6" height="37.95454545454545" as="geometry" />
        </mxCell>
        <mxCell id="Sf03F74_9f9WxnwygZxC-2" value="" style="outlineConnect=0;dashed=0;verticalLabelPosition=bottom;verticalAlign=top;align=center;html=1;shape=mxgraph.aws3.cloud_2;fillColor=#F58534;gradientColor=none;" parent="Sf03F74_9f9WxnwygZxC-10" vertex="1">
          <mxGeometry width="48.6" height="37.95454545454545" as="geometry" />
        </mxCell>
        <mxCell id="Sf03F74_9f9WxnwygZxC-17" value="" style="group" parent="1" vertex="1" connectable="0">
          <mxGeometry x="565" y="255" width="120" height="90" as="geometry" />
        </mxCell>
        <mxCell id="Sf03F74_9f9WxnwygZxC-18" value="" style="shape=image;html=1;verticalAlign=top;verticalLabelPosition=bottom;labelBackgroundColor=#ffffff;imageAspect=0;aspect=fixed;image=https://cdn1.iconfinder.com/data/icons/ionicons-fill-vol-2/512/person-128.png" parent="Sf03F74_9f9WxnwygZxC-17" vertex="1">
          <mxGeometry width="59.53488372093023" height="59.53488372093023" as="geometry" />
        </mxCell>
        <mxCell id="Sf03F74_9f9WxnwygZxC-19" value="" style="shape=image;html=1;verticalAlign=top;verticalLabelPosition=bottom;labelBackgroundColor=#ffffff;imageAspect=0;aspect=fixed;image=https://cdn0.iconfinder.com/data/icons/devices-42/512/Laptop-128.png" parent="Sf03F74_9f9WxnwygZxC-17" vertex="1">
          <mxGeometry x="60.46511627906977" width="59.53488372093023" height="59.53488372093023" as="geometry" />
        </mxCell>
        <mxCell id="Sf03F74_9f9WxnwygZxC-20" value="QA testing" style="text;html=1;strokeColor=#b85450;fillColor=#f8cecc;align=center;verticalAlign=middle;whiteSpace=wrap;rounded=0;" parent="Sf03F74_9f9WxnwygZxC-17" vertex="1">
          <mxGeometry x="15.348837209302326" y="72.9113924050633" width="100.93023255813952" height="17.08860759493671" as="geometry" />
        </mxCell>
        <mxCell id="Sf03F74_9f9WxnwygZxC-23" value="" style="group" parent="1" vertex="1" connectable="0">
          <mxGeometry x="541" y="127" width="162" height="167" as="geometry" />
        </mxCell>
        <mxCell id="Sf03F74_9f9WxnwygZxC-24" value="" style="group" parent="Sf03F74_9f9WxnwygZxC-23" vertex="1" connectable="0">
          <mxGeometry width="162" height="167" as="geometry" />
        </mxCell>
        <mxCell id="Sf03F74_9f9WxnwygZxC-25" value="" style="rounded=1;arcSize=10;dashed=0;fillColor=none;gradientColor=none;strokeWidth=2;" parent="Sf03F74_9f9WxnwygZxC-24" vertex="1">
          <mxGeometry y="15.18181818181818" width="145.8" height="91.09090909090908" as="geometry" />
        </mxCell>
        <mxCell id="Sf03F74_9f9WxnwygZxC-26" value="" style="dashed=0;html=1;shape=mxgraph.aws3.virtual_private_cloud;fillColor=#F58536;gradientColor=none;dashed=0;" parent="Sf03F74_9f9WxnwygZxC-24" vertex="1">
          <mxGeometry x="16.200000000000003" width="42.120000000000005" height="27.327272727272724" as="geometry" />
        </mxCell>
        <mxCell id="Sf03F74_9f9WxnwygZxC-27" value="" style="group" parent="Sf03F74_9f9WxnwygZxC-23" vertex="1" connectable="0">
          <mxGeometry x="16.200000000000003" y="37.95454545454545" width="105.30000000000001" height="37.95454545454545" as="geometry" />
        </mxCell>
        <mxCell id="Sf03F74_9f9WxnwygZxC-28" value="ECS Container" style="outlineConnect=0;dashed=0;verticalLabelPosition=bottom;verticalAlign=top;align=center;html=1;shape=mxgraph.aws3.ec2_compute_container;fillColor=#F58534;gradientColor=none;" parent="Sf03F74_9f9WxnwygZxC-27" vertex="1">
          <mxGeometry x="56.7" width="48.6" height="37.95454545454545" as="geometry" />
        </mxCell>
        <mxCell id="Sf03F74_9f9WxnwygZxC-29" value="" style="outlineConnect=0;dashed=0;verticalLabelPosition=bottom;verticalAlign=top;align=center;html=1;shape=mxgraph.aws3.cloud_2;fillColor=#F58534;gradientColor=none;" parent="Sf03F74_9f9WxnwygZxC-27" vertex="1">
          <mxGeometry width="48.6" height="37.95454545454545" as="geometry" />
        </mxCell>
        <mxCell id="Sf03F74_9f9WxnwygZxC-32" value="" style="group" parent="1" vertex="1" connectable="0">
          <mxGeometry x="390" y="280" width="120" height="90" as="geometry" />
        </mxCell>
        <mxCell id="Sf03F74_9f9WxnwygZxC-33" value="" style="shape=image;html=1;verticalAlign=top;verticalLabelPosition=bottom;labelBackgroundColor=#ffffff;imageAspect=0;aspect=fixed;image=https://cdn1.iconfinder.com/data/icons/ionicons-fill-vol-2/512/person-128.png" parent="Sf03F74_9f9WxnwygZxC-32" vertex="1">
          <mxGeometry width="59.53488372093023" height="59.53488372093023" as="geometry" />
        </mxCell>
        <mxCell id="Sf03F74_9f9WxnwygZxC-34" value="" style="shape=image;html=1;verticalAlign=top;verticalLabelPosition=bottom;labelBackgroundColor=#ffffff;imageAspect=0;aspect=fixed;image=https://cdn0.iconfinder.com/data/icons/devices-42/512/Laptop-128.png" parent="Sf03F74_9f9WxnwygZxC-32" vertex="1">
          <mxGeometry x="60.46511627906977" width="59.53488372093023" height="59.53488372093023" as="geometry" />
        </mxCell>
        <mxCell id="Sf03F74_9f9WxnwygZxC-35" value="Dev Testing" style="text;html=1;strokeColor=#d6b656;fillColor=#fff2cc;align=center;verticalAlign=middle;whiteSpace=wrap;rounded=0;" parent="Sf03F74_9f9WxnwygZxC-32" vertex="1">
          <mxGeometry x="15.348837209302326" y="72.9113924050633" width="100.93023255813952" height="17.08860759493671" as="geometry" />
        </mxCell>
        <mxCell id="Sf03F74_9f9WxnwygZxC-37" value="" style="shape=image;html=1;verticalAlign=top;verticalLabelPosition=bottom;labelBackgroundColor=#ffffff;imageAspect=0;aspect=fixed;image=https://cdn4.iconfinder.com/data/icons/thin-line-icons-for-seo-and-development-1/64/seo_bug_search-128.png" parent="1" vertex="1">
          <mxGeometry x="578" y="367" width="94" height="94" as="geometry" />
        </mxCell>
        <mxCell id="iulyBPEYUaWmS1dHUSvB-1" value="" style="group" vertex="1" connectable="0" parent="1">
          <mxGeometry x="730" y="130" width="162" height="167" as="geometry" />
        </mxCell>
        <mxCell id="iulyBPEYUaWmS1dHUSvB-2" value="" style="group" vertex="1" connectable="0" parent="iulyBPEYUaWmS1dHUSvB-1">
          <mxGeometry width="162" height="167" as="geometry" />
        </mxCell>
        <mxCell id="iulyBPEYUaWmS1dHUSvB-3" value="" style="rounded=1;arcSize=10;dashed=0;fillColor=none;gradientColor=none;strokeWidth=2;" vertex="1" parent="iulyBPEYUaWmS1dHUSvB-2">
          <mxGeometry y="15.18181818181818" width="145.8" height="91.09090909090908" as="geometry" />
        </mxCell>
        <mxCell id="iulyBPEYUaWmS1dHUSvB-4" value="" style="dashed=0;html=1;shape=mxgraph.aws3.virtual_private_cloud;fillColor=#F58536;gradientColor=none;dashed=0;" vertex="1" parent="iulyBPEYUaWmS1dHUSvB-2">
          <mxGeometry x="16.200000000000003" width="42.120000000000005" height="27.327272727272724" as="geometry" />
        </mxCell>
        <mxCell id="iulyBPEYUaWmS1dHUSvB-5" value="" style="group" vertex="1" connectable="0" parent="iulyBPEYUaWmS1dHUSvB-1">
          <mxGeometry x="16.200000000000003" y="37.95454545454545" width="105.30000000000001" height="37.95454545454545" as="geometry" />
        </mxCell>
        <mxCell id="iulyBPEYUaWmS1dHUSvB-6" value="ECS Container" style="outlineConnect=0;dashed=0;verticalLabelPosition=bottom;verticalAlign=top;align=center;html=1;shape=mxgraph.aws3.ec2_compute_container;fillColor=#F58534;gradientColor=none;" vertex="1" parent="iulyBPEYUaWmS1dHUSvB-5">
          <mxGeometry x="56.7" width="48.6" height="37.95454545454545" as="geometry" />
        </mxCell>
        <mxCell id="iulyBPEYUaWmS1dHUSvB-7" value="" style="outlineConnect=0;dashed=0;verticalLabelPosition=bottom;verticalAlign=top;align=center;html=1;shape=mxgraph.aws3.cloud_2;fillColor=#F58534;gradientColor=none;" vertex="1" parent="iulyBPEYUaWmS1dHUSvB-5">
          <mxGeometry width="48.6" height="37.95454545454545" as="geometry" />
        </mxCell>
      </root>
    </mxGraphModel>
  </diagram>
</mxfile>
